<svg width="274" height="292" viewBox="0 0 274 292" fill="none" xmlns="http://www.w3.org/2000/svg">
<path d="M123.69 150.845L70.8844 202.41C63.8065 209.321 63.797 220.518 70.8633 227.418L124.205 279.506C131.272 286.406 142.738 286.397 149.816 279.485L202.621 227.921C209.699 221.01 209.709 209.813 202.642 202.913L149.3 150.825C142.234 143.924 130.768 143.934 123.69 150.845Z" fill="#3C52D9"/>
<path d="M270.429 110.826C275.19 115.556 275.19 123.22 270.429 127.945L220.585 177.454C219.838 178.203 218.944 178.798 217.957 179.205C216.97 179.611 215.91 179.821 214.839 179.821C213.768 179.821 212.707 179.611 211.72 179.205C210.733 178.798 209.84 178.203 209.092 177.454L150.945 119.694C148.66 117.424 147.373 114.343 147.373 111.132V8.0873C147.373 0.896581 156.126 -2.70594 161.244 2.3825L270.425 110.831L270.429 110.826ZM50.4005 174.41C51.5219 175.534 52.8622 176.426 54.3425 177.036C55.8227 177.645 57.4129 177.959 59.0194 177.959C60.6259 177.959 62.2161 177.645 63.6963 177.036C65.1766 176.426 66.5169 175.534 67.6382 174.41L122.879 119.536C125.164 117.267 126.446 114.185 126.446 110.974V8.18286C126.446 0.992139 117.693 -2.61039 112.575 2.47328L3.57059 110.764C-1.1902 115.494 -1.1902 123.158 3.57059 127.888L50.4005 174.41Z" fill="#2EF2FF"/>
</svg>
